<svg width="104" height="68" viewBox="0 0 104 68" fill="none" xmlns="http://www.w3.org/2000/svg">
  <g clip-path="url(#clip0_34_4443)">
  <path d="M62.9142 39.1656H41.0857C38.7444 39.1656 36.8765 37.1999 37.0051 34.8535L37.5557 26.7077L54.1612 32.615C54.2693 32.6562 54.3825 32.6716 54.4957 32.6716C54.9073 32.6716 55.2933 32.4143 55.4374 32.0078C55.6226 31.4881 55.3499 30.9169 54.8302 30.7317L37.6998 24.639L38.5488 12.0627C38.6672 9.89634 40.4631 8.20337 42.6295 8.20337H61.3705C63.5368 8.20337 65.3327 9.90148 65.4511 12.0627L66.0171 20.4195L50.0857 14.7488C49.566 14.5636 48.9948 14.8363 48.8096 15.356C48.6243 15.8758 48.897 16.4469 49.4168 16.6322L66.1612 22.591L66.9897 34.8483C67.1183 37.1948 65.2555 39.1656 62.9091 39.1656H62.9142Z" fill="#004D5A"/>
  <path d="M52.1235 0.834473C48.542 0.834473 45.6295 3.74699 45.6295 7.32847H48.6244C48.6244 5.3988 50.1938 3.83447 52.1184 3.83447C54.0429 3.83447 55.6124 5.40394 55.6124 7.32847H58.6072C58.6072 3.74699 55.6947 0.834473 52.1132 0.834473H52.1235Z" fill="#BAF3E6"/>
  </g>
  <path d="M4.716 63.3995C3.258 63.3995 1.746 62.9855 0.702 62.3915L1.116 60.3035C2.106 60.8975 3.42 61.3475 4.68 61.3475C6.264 61.3475 7.164 60.6635 7.164 59.6915C7.164 57.2255 0.828 58.6655 0.828 54.1655C0.828 51.8435 2.664 50.2595 5.382 50.2595C6.804 50.2595 8.46 50.6915 9.198 51.2675L8.658 53.2475C7.848 52.7975 6.696 52.3295 5.454 52.3295C3.888 52.3295 3.186 53.0855 3.186 53.9315C3.186 56.5955 9.504 55.2815 9.504 59.5295C9.504 61.9235 7.344 63.3995 4.716 63.3995ZM17.8474 60.9695L18.2074 62.7515C17.3794 63.1475 16.4434 63.3635 15.3274 63.3635C13.3294 63.3635 12.0154 62.3195 12.0154 59.9615V55.4075H10.3414V53.6435H12.0154V51.0335H14.3014V53.6435H17.8114V55.4075H14.3014V59.4035C14.3014 60.8615 14.9674 61.4015 15.9034 61.4015C16.5874 61.4015 17.1994 61.2755 17.8474 60.9695ZM18.7886 58.4315C18.7886 55.1915 21.2186 53.3735 23.9906 53.3735C26.7086 53.3735 29.2646 55.1195 29.2646 58.3775C29.2646 61.6175 26.7986 63.3995 23.9546 63.3995C21.1826 63.3995 18.7886 61.6715 18.7886 58.4315ZM21.2006 58.3595C21.2006 60.4295 22.4246 61.4555 23.9906 61.4555C25.6106 61.4555 26.8526 60.4115 26.8526 58.3955C26.8526 56.3615 25.5566 55.2995 24.0266 55.2995C22.5326 55.2995 21.2006 56.2895 21.2006 58.3595ZM36.5064 53.4635C36.8484 53.4635 37.1724 53.4995 37.4424 53.5895L37.1184 55.5515C36.8664 55.4615 36.5244 55.4255 36.2724 55.4255C35.1024 55.4255 34.0404 56.4335 33.4104 58.0715V63.1655H31.1064V53.6435H33.4104V55.4075C34.1484 54.2735 35.1744 53.4635 36.5064 53.4635ZM47.3486 59.1335H40.2026C40.4366 60.7535 41.4626 61.5635 43.2986 61.5635C44.4686 61.5635 45.4406 61.3655 46.5566 60.7715L46.9526 62.4275C45.9086 63.0395 44.5766 63.4175 42.9386 63.4175C39.6266 63.4175 37.8086 61.5455 37.8086 58.4675C37.8086 55.3895 39.8786 53.3915 42.7046 53.3915C45.3326 53.3915 47.4026 54.9755 47.4026 58.3955C47.4026 58.6835 47.3846 58.9355 47.3486 59.1335ZM40.2026 57.6935H45.0266C44.8646 56.0375 44.0726 55.2095 42.6686 55.2095C41.2646 55.2095 40.4006 56.0555 40.2026 57.6935ZM58.589 57.6935V50.5115H60.875V63.1655H58.643L52.613 55.4075L51.695 54.0035L51.731 56.3975V63.1655H49.445V50.5115H51.695L57.419 58.0715L58.643 59.7635L58.589 57.6935ZM70.957 55.1195V53.6435H73.243V63.1655H70.957V61.4375C70.165 62.6795 69.049 63.3815 67.555 63.3815C65.089 63.3815 62.875 61.6715 62.875 58.4135C62.875 55.1555 65.017 53.3915 67.555 53.3915C69.013 53.3915 70.147 53.9855 70.957 55.1195ZM67.897 61.4375C69.427 61.4375 70.525 60.1775 70.957 58.3955V58.3055C70.489 56.4695 69.301 55.3355 67.897 55.3355C66.421 55.3355 65.287 56.3615 65.287 58.3775C65.287 60.3215 66.421 61.4375 67.897 61.4375ZM88.2134 53.4095C90.1034 53.4095 91.5794 54.4895 91.5794 57.5675V63.1655H89.2934V57.7115C89.2934 56.1095 88.6634 55.3715 87.5834 55.3715C86.3414 55.3715 85.4774 56.2715 84.7574 58.0895V63.1655H82.4714V57.7115C82.4714 56.1095 81.8954 55.3715 80.8154 55.3715C79.5554 55.3715 78.6734 56.2715 77.9534 58.0895V63.1655H75.6494V53.6435H77.9534V55.4255C78.8174 54.0935 79.9514 53.4095 81.4814 53.4095C82.9214 53.4095 84.0914 54.0575 84.5594 55.7675C85.4414 54.2015 86.5754 53.4095 88.2134 53.4095ZM102.895 59.1335H95.7495C95.9835 60.7535 97.0095 61.5635 98.8455 61.5635C100.015 61.5635 100.987 61.3655 102.103 60.7715L102.499 62.4275C101.455 63.0395 100.123 63.4175 98.4855 63.4175C95.1735 63.4175 93.3555 61.5455 93.3555 58.4675C93.3555 55.3895 95.4255 53.3915 98.2515 53.3915C100.879 53.3915 102.949 54.9755 102.949 58.3955C102.949 58.6835 102.931 58.9355 102.895 59.1335ZM95.7495 57.6935H100.573C100.411 56.0375 99.6195 55.2095 98.2155 55.2095C96.8115 55.2095 95.9475 56.0555 95.7495 57.6935Z" fill="#004D5A"/>
  <defs>
  <clipPath id="clip0_34_4443">
  <rect width="30" height="38.331" fill="white" transform="translate(37 0.834473)"/>
  </clipPath>
  </defs>
  </svg>
  