<svg width="178" height="41" viewBox="0 0 178 41" fill="none" xmlns="http://www.w3.org/2000/svg">
  <g clip-path="url(#clip0_4_44)">
  <path d="M25.9142 38.831H4.08573C1.74439 38.831 -0.123536 36.8653 0.00510896 34.5189L0.555709 26.3731L17.1612 32.2804C17.2693 32.3216 17.3825 32.337 17.4957 32.337C17.9073 32.337 18.2933 32.0798 18.4374 31.6732C18.6226 31.1535 18.3499 30.5823 17.8302 30.3971L0.699792 24.3045L1.54885 11.7281C1.6672 9.56174 3.46309 7.86877 5.62947 7.86877H24.3705C26.5368 7.86877 28.3327 9.56689 28.4511 11.7281L29.0171 20.0849L13.0857 14.4142C12.566 14.229 11.9948 14.5017 11.8096 15.0214C11.6243 15.5412 11.897 16.1123 12.4168 16.2976L29.1612 22.2564L29.9897 34.5137C30.1183 36.8602 28.2555 38.831 25.9091 38.831H25.9142Z" fill="#004D5A"/>
  <path d="M15.1235 0.5C11.542 0.5 8.62952 3.41252 8.62952 6.994H11.6244C11.6244 5.06432 13.1938 3.5 15.1184 3.5C17.0429 3.5 18.6124 5.06947 18.6124 6.994H21.6072C21.6072 3.41252 18.6947 0.5 15.1132 0.5H15.1235Z" fill="#BAF3E6"/>
  </g>
  <path d="M50.716 16.734C49.258 16.734 47.746 16.32 46.702 15.726L47.116 13.638C48.106 14.232 49.42 14.682 50.68 14.682C52.264 14.682 53.164 13.998 53.164 13.026C53.164 10.56 46.828 12 46.828 7.5C46.828 5.178 48.664 3.594 51.382 3.594C52.804 3.594 54.46 4.026 55.198 4.602L54.658 6.582C53.848 6.132 52.696 5.664 51.454 5.664C49.888 5.664 49.186 6.42 49.186 7.266C49.186 9.93 55.504 8.616 55.504 12.864C55.504 15.258 53.344 16.734 50.716 16.734ZM63.8474 14.304L64.2074 16.086C63.3794 16.482 62.4434 16.698 61.3274 16.698C59.3294 16.698 58.0154 15.654 58.0154 13.296V8.742H56.3414V6.978H58.0154V4.368H60.3014V6.978H63.8114V8.742H60.3014V12.738C60.3014 14.196 60.9674 14.736 61.9034 14.736C62.5874 14.736 63.1994 14.61 63.8474 14.304ZM64.7886 11.766C64.7886 8.526 67.2186 6.708 69.9906 6.708C72.7086 6.708 75.2646 8.454 75.2646 11.712C75.2646 14.952 72.7986 16.734 69.9546 16.734C67.1826 16.734 64.7886 15.006 64.7886 11.766ZM67.2006 11.694C67.2006 13.764 68.4246 14.79 69.9906 14.79C71.6106 14.79 72.8526 13.746 72.8526 11.73C72.8526 9.696 71.5566 8.634 70.0266 8.634C68.5326 8.634 67.2006 9.624 67.2006 11.694ZM82.5064 6.798C82.8484 6.798 83.1724 6.834 83.4424 6.924L83.1184 8.886C82.8664 8.796 82.5244 8.76 82.2724 8.76C81.1024 8.76 80.0404 9.768 79.4104 11.406V16.5H77.1064V6.978H79.4104V8.742C80.1484 7.608 81.1744 6.798 82.5064 6.798ZM93.3486 12.468H86.2026C86.4366 14.088 87.4626 14.898 89.2986 14.898C90.4686 14.898 91.4406 14.7 92.5566 14.106L92.9526 15.762C91.9086 16.374 90.5766 16.752 88.9386 16.752C85.6266 16.752 83.8086 14.88 83.8086 11.802C83.8086 8.724 85.8786 6.726 88.7046 6.726C91.3326 6.726 93.4026 8.31 93.4026 11.73C93.4026 12.018 93.3846 12.27 93.3486 12.468ZM86.2026 11.028H91.0266C90.8646 9.372 90.0726 8.544 88.6686 8.544C87.2646 8.544 86.4006 9.39 86.2026 11.028ZM104.589 11.028V3.846H106.875V16.5H104.643L98.613 8.742L97.695 7.338L97.731 9.732V16.5H95.445V3.846H97.695L103.419 11.406L104.643 13.098L104.589 11.028ZM116.957 8.454V6.978H119.243V16.5H116.957V14.772C116.165 16.014 115.049 16.716 113.555 16.716C111.089 16.716 108.875 15.006 108.875 11.748C108.875 8.49 111.017 6.726 113.555 6.726C115.013 6.726 116.147 7.32 116.957 8.454ZM113.897 14.772C115.427 14.772 116.525 13.512 116.957 11.73V11.64C116.489 9.804 115.301 8.67 113.897 8.67C112.421 8.67 111.287 9.696 111.287 11.712C111.287 13.656 112.421 14.772 113.897 14.772ZM134.213 6.744C136.103 6.744 137.579 7.824 137.579 10.902V16.5H135.293V11.046C135.293 9.444 134.663 8.706 133.583 8.706C132.341 8.706 131.477 9.606 130.757 11.424V16.5H128.471V11.046C128.471 9.444 127.895 8.706 126.815 8.706C125.555 8.706 124.673 9.606 123.953 11.424V16.5H121.649V6.978H123.953V8.76C124.817 7.428 125.951 6.744 127.481 6.744C128.921 6.744 130.091 7.392 130.559 9.102C131.441 7.536 132.575 6.744 134.213 6.744ZM148.895 12.468H141.749C141.983 14.088 143.009 14.898 144.845 14.898C146.015 14.898 146.987 14.7 148.103 14.106L148.499 15.762C147.455 16.374 146.123 16.752 144.485 16.752C141.173 16.752 139.355 14.88 139.355 11.802C139.355 8.724 141.425 6.726 144.251 6.726C146.879 6.726 148.949 8.31 148.949 11.73C148.949 12.018 148.931 12.27 148.895 12.468ZM141.749 11.028H146.573C146.411 9.372 145.619 8.544 144.215 8.544C142.811 8.544 141.947 9.39 141.749 11.028Z" fill="#004D5A"/>
  <path d="M48.568 34.62C47.824 34.62 46.936 34.392 46.48 34.152L46.732 33.336C47.272 33.624 47.896 33.792 48.58 33.792C49.456 33.792 50.08 33.564 50.08 32.82C50.08 31.212 46.6 32.544 46.6 29.94C46.6 28.848 47.416 28.104 48.892 28.104C49.492 28.104 50.248 28.272 50.776 28.572L50.536 29.4C50.008 29.088 49.48 28.932 48.904 28.932C48.148 28.932 47.524 29.244 47.524 29.892C47.524 31.692 50.98 30.348 50.98 32.772C50.98 33.924 49.864 34.62 48.568 34.62ZM56.1529 33.468L56.3809 34.2C55.8769 34.464 55.3969 34.62 54.7009 34.62C53.6449 34.62 52.7929 33.996 52.7929 32.412V29.004H51.6529V28.236H52.7929V26.34H53.6929V28.236H56.0209V29.004H53.6929V32.268C53.6929 33.432 54.1969 33.804 54.8809 33.804C55.2769 33.804 55.7569 33.696 56.1529 33.468ZM56.8525 31.392C56.8525 29.196 58.5445 28.104 60.0805 28.104C61.5925 28.104 63.3805 29.112 63.3805 31.32C63.3805 33.504 61.7125 34.62 60.0565 34.62C58.4725 34.62 56.8525 33.6 56.8525 31.392ZM57.8005 31.332C57.8005 33.036 58.8805 33.792 60.1045 33.792C61.3525 33.792 62.4325 33.012 62.4325 31.404C62.4325 29.748 61.2805 28.932 60.1045 28.932C59.0125 28.932 57.8005 29.664 57.8005 31.332ZM67.962 28.116C68.166 28.116 68.382 28.152 68.598 28.236L68.406 29.028C68.238 28.968 68.07 28.932 67.914 28.932C67.002 28.932 66.258 29.832 65.814 31.044V34.5H64.914V28.236H65.814V29.7C66.306 28.836 67.014 28.116 67.962 28.116ZM71.9711 28.104C73.5671 28.104 74.8631 29.184 74.8631 31.368C74.8631 31.476 74.8511 31.62 74.8391 31.704H69.8831C69.9671 33.108 70.7831 33.792 72.1991 33.792C72.9191 33.792 73.5671 33.696 74.3471 33.24L74.5511 33.972C74.0111 34.356 73.0391 34.62 72.1511 34.62C70.1711 34.62 68.9231 33.468 68.9231 31.44C68.9231 29.292 70.3271 28.104 71.9711 28.104ZM71.9471 28.932C70.8551 28.932 70.0511 29.592 69.8951 30.936H73.9031C73.7831 29.568 73.0151 28.932 71.9471 28.932Z" fill="#999999"/>
  <path d="M46 35.7H75.3671V36.3H46V35.7Z" fill="#999999"/>
  <path d="M81.296 35.892H80.432L83.192 26.064H84.056L81.296 35.892Z" fill="#999999"/>
  <path d="M94.46 33.312L94.724 34.02C94.244 34.392 93.572 34.62 92.648 34.62C91.088 34.62 89.54 33.528 89.54 31.416C89.54 29.232 91.112 28.104 92.648 28.104C93.512 28.104 94.184 28.272 94.712 28.716L94.388 29.52C93.956 29.196 93.524 28.932 92.648 28.932C91.568 28.932 90.488 29.772 90.488 31.368C90.488 32.904 91.532 33.792 92.648 33.792C93.404 33.792 93.896 33.684 94.46 33.312ZM100.977 29.484V28.236H101.877V34.5H100.977V33.18C100.437 34.128 99.6446 34.62 98.5766 34.62C96.8726 34.62 95.5286 33.468 95.5286 31.392C95.5286 29.292 96.8726 28.104 98.5766 28.104C99.6326 28.104 100.449 28.608 100.977 29.484ZM98.5886 33.792C99.8966 33.792 100.725 32.748 100.977 31.368C100.773 30.024 99.7886 28.932 98.5886 28.932C97.3766 28.932 96.4766 29.688 96.4766 31.38C96.4766 32.916 97.3766 33.792 98.5886 33.792ZM106.919 28.116C107.123 28.116 107.339 28.152 107.555 28.236L107.363 29.028C107.195 28.968 107.027 28.932 106.871 28.932C105.959 28.932 105.215 29.832 104.771 31.044V34.5H103.871V28.236H104.771V29.7C105.263 28.836 105.971 28.116 106.919 28.116ZM112.36 33.468L112.588 34.2C112.084 34.464 111.604 34.62 110.908 34.62C109.852 34.62 109 33.996 109 32.412V29.004H107.86V28.236H109V26.34H109.9V28.236H112.228V29.004H109.9V32.268C109.9 33.432 110.404 33.804 111.088 33.804C111.484 33.804 111.964 33.696 112.36 33.468Z" fill="#999999"/>
  <path d="M89 35.7H112.612V36.3H89V35.7Z" fill="#999999"/>
  <path d="M118.296 35.892H117.432L120.192 26.064H121.056L118.296 35.892Z" fill="#999999"/>
  <path d="M131.46 33.312L131.724 34.02C131.244 34.392 130.572 34.62 129.648 34.62C128.088 34.62 126.54 33.528 126.54 31.416C126.54 29.232 128.112 28.104 129.648 28.104C130.512 28.104 131.184 28.272 131.712 28.716L131.388 29.52C130.956 29.196 130.524 28.932 129.648 28.932C128.568 28.932 127.488 29.772 127.488 31.368C127.488 32.904 128.532 33.792 129.648 33.792C130.404 33.792 130.896 33.684 131.46 33.312ZM136.474 28.104C137.53 28.104 138.562 28.644 138.562 30.6V34.5H137.662V30.72C137.662 29.472 137.086 28.944 136.294 28.944C135.286 28.944 134.578 29.712 133.978 31.128V34.5H133.078V26.064H133.978V29.712C134.626 28.608 135.442 28.104 136.474 28.104ZM143.088 28.104C144.684 28.104 145.98 29.184 145.98 31.368C145.98 31.476 145.968 31.62 145.956 31.704H141C141.084 33.108 141.9 33.792 143.316 33.792C144.036 33.792 144.684 33.696 145.464 33.24L145.668 33.972C145.128 34.356 144.156 34.62 143.268 34.62C141.288 34.62 140.04 33.468 140.04 31.44C140.04 29.292 141.444 28.104 143.088 28.104ZM143.064 28.932C141.972 28.932 141.168 29.592 141.012 30.936H145.02C144.9 29.568 144.132 28.932 143.064 28.932ZM151.944 33.312L152.208 34.02C151.728 34.392 151.056 34.62 150.132 34.62C148.572 34.62 147.024 33.528 147.024 31.416C147.024 29.232 148.596 28.104 150.132 28.104C150.996 28.104 151.668 28.272 152.196 28.716L151.872 29.52C151.44 29.196 151.008 28.932 150.132 28.932C149.052 28.932 147.972 29.772 147.972 31.368C147.972 32.904 149.016 33.792 150.132 33.792C150.888 33.792 151.38 33.684 151.944 33.312ZM155.35 31.284L158.458 34.5H157.27L154.462 31.608V34.5H153.562V26.064H154.462V31.176L157.114 28.236H158.23L155.35 31.284ZM158.661 31.392C158.661 29.196 160.353 28.104 161.889 28.104C163.401 28.104 165.189 29.112 165.189 31.32C165.189 33.504 163.521 34.62 161.865 34.62C160.281 34.62 158.661 33.6 158.661 31.392ZM159.609 31.332C159.609 33.036 160.689 33.792 161.913 33.792C163.161 33.792 164.241 33.012 164.241 31.404C164.241 29.748 163.089 28.932 161.913 28.932C160.821 28.932 159.609 29.664 159.609 31.332ZM171.139 31.656V28.236H172.039V34.5H171.139V33.084C170.539 34.14 169.747 34.62 168.691 34.62C167.659 34.62 166.639 34.092 166.639 32.124V28.236H167.539V32.016C167.539 33.252 168.115 33.78 168.883 33.78C169.915 33.78 170.611 33.084 171.139 31.656ZM177.731 33.468L177.959 34.2C177.455 34.464 176.975 34.62 176.279 34.62C175.223 34.62 174.371 33.996 174.371 32.412V29.004H173.231V28.236H174.371V26.34H175.271V28.236H177.599V29.004H175.271V32.268C175.271 33.432 175.775 33.804 176.459 33.804C176.855 33.804 177.335 33.696 177.731 33.468Z" fill="#333333"/>
  <defs>
  <clipPath id="clip0_4_44">
  <rect width="30" height="38.331" fill="white" transform="translate(0 0.5)"/>
  </clipPath>
  </defs>
  </svg>
  