<svg width="113" height="29" viewBox="0 0 113 29" fill="none" xmlns="http://www.w3.org/2000/svg">
  <rect x="0.5" y="1" width="112" height="27" rx="5.5" stroke="#004D5A" stroke-opacity="0.25"/>
  <path d="M16.125 18.75H7.875C7.77344 18.75 7.68359 18.7148 7.60547 18.6445C7.53516 18.5664 7.5 18.4766 7.5 18.375C7.5 18.0625 7.39062 17.7969 7.17188 17.5781C6.95312 17.3594 6.6875 17.25 6.375 17.25C6.27344 17.25 6.18359 17.2148 6.10547 17.1445C6.03516 17.0664 6 16.9766 6 16.875V12.375C6 12.2734 6.03516 12.1875 6.10547 12.1172C6.18359 12.0391 6.27344 12 6.375 12C6.6875 12 6.95312 11.8906 7.17188 11.6719C7.39062 11.4531 7.5 11.1875 7.5 10.875C7.5 10.7734 7.53516 10.6875 7.60547 10.6172C7.68359 10.5391 7.77344 10.5 7.875 10.5H16.125C16.2266 10.5 16.3125 10.5391 16.3828 10.6172C16.4609 10.6875 16.5 10.7734 16.5 10.875C16.5 11.1875 16.6094 11.4531 16.8281 11.6719C17.0469 11.8906 17.3125 12 17.625 12C17.7266 12 17.8125 12.0391 17.8828 12.1172C17.9609 12.1875 18 12.2734 18 12.375V16.875C18 16.9766 17.9609 17.0664 17.8828 17.1445C17.8125 17.2148 17.7266 17.25 17.625 17.25C17.3125 17.25 17.0469 17.3594 16.8281 17.5781C16.6094 17.7969 16.5 18.0625 16.5 18.375C16.5 18.4766 16.4609 18.5664 16.3828 18.6445C16.3125 18.7148 16.2266 18.75 16.125 18.75ZM8.21484 18H15.7852C15.8633 17.6328 16.0352 17.3164 16.3008 17.0508C16.5664 16.7852 16.8789 16.6133 17.2383 16.5352H17.25V12.7148C16.8828 12.6367 16.5664 12.4648 16.3008 12.1992C16.0352 11.9336 15.8633 11.6211 15.7852 11.2617V11.25H8.21484C8.13672 11.6172 7.96484 11.9336 7.69922 12.1992C7.43359 12.4648 7.12109 12.6367 6.76172 12.7148H6.75V16.5352C7.11719 16.6133 7.43359 16.7852 7.69922 17.0508C7.96484 17.3164 8.13672 17.6289 8.21484 17.9883V18ZM13.5 10.875H14.25V12H13.5V10.875ZM13.5 12.75H14.25V14.25H13.5V12.75ZM13.5 15H14.25V16.5H13.5V15ZM13.5 17.25H14.25V18.375H13.5V17.25ZM9.375 14.25C9.0625 14.25 8.79688 14.1406 8.57812 13.9219C8.35938 13.7031 8.25 13.4375 8.25 13.125C8.25 12.8125 8.35938 12.5469 8.57812 12.3281C8.79688 12.1094 9.0625 12 9.375 12C9.6875 12 9.95312 12.1094 10.1719 12.3281C10.3906 12.5469 10.5 12.8125 10.5 13.125C10.5 13.4375 10.3906 13.7031 10.1719 13.9219C9.95312 14.1406 9.6875 14.25 9.375 14.25ZM9.375 12.75C9.27344 12.75 9.18359 12.7891 9.10547 12.8672C9.03516 12.9375 9 13.0234 9 13.125C9 13.2266 9.03516 13.3164 9.10547 13.3945C9.18359 13.4648 9.27344 13.5 9.375 13.5C9.47656 13.5 9.5625 13.4648 9.63281 13.3945C9.71094 13.3164 9.75 13.2266 9.75 13.125C9.75 13.0234 9.71094 12.9375 9.63281 12.8672C9.5625 12.7891 9.47656 12.75 9.375 12.75ZM11.625 17.25C11.3125 17.25 11.0469 17.1406 10.8281 16.9219C10.6094 16.7031 10.5 16.4375 10.5 16.125C10.5 15.8125 10.6094 15.5469 10.8281 15.3281C11.0469 15.1094 11.3125 15 11.625 15C11.9375 15 12.2031 15.1094 12.4219 15.3281C12.6406 15.5469 12.75 15.8125 12.75 16.125C12.75 16.4375 12.6406 16.7031 12.4219 16.9219C12.2031 17.1406 11.9375 17.25 11.625 17.25ZM11.625 15.75C11.5234 15.75 11.4336 15.7891 11.3555 15.8672C11.2852 15.9375 11.25 16.0234 11.25 16.125C11.25 16.2266 11.2852 16.3164 11.3555 16.3945C11.4336 16.4648 11.5234 16.5 11.625 16.5C11.7266 16.5 11.8125 16.4648 11.8828 16.3945C11.9609 16.3164 12 16.2266 12 16.125C12 16.0234 11.9609 15.9375 11.8828 15.8672C11.8125 15.7891 11.7266 15.75 11.625 15.75ZM8.625 17.25C8.52344 17.25 8.43359 17.2148 8.35547 17.1445C8.28516 17.0664 8.25 16.9766 8.25 16.875C8.25 16.8281 8.25781 16.7852 8.27344 16.7461C8.28906 16.707 8.30859 16.668 8.33203 16.6289V16.6406L12.082 12.1406C12.1211 12.0938 12.1641 12.0586 12.2109 12.0352C12.2656 12.0117 12.3203 12 12.375 12C12.4766 12 12.5625 12.0391 12.6328 12.1172C12.7109 12.1875 12.75 12.2734 12.75 12.375C12.75 12.4219 12.7422 12.4648 12.7266 12.5039C12.7109 12.543 12.6914 12.582 12.668 12.6211L8.91797 17.1211C8.87891 17.1602 8.83203 17.1914 8.77734 17.2148C8.73047 17.2383 8.67969 17.25 8.625 17.25Z" fill="#004D5A"/>
  <path d="M30.144 10.064V11.408H26.52V13.976H29.712V15.308H26.52V18.5H24.936V10.064H30.144ZM37.6553 18.5H35.9033L34.1753 15.512H33.0473V18.5H31.4633V10.064H34.2353C35.8553 10.064 37.3673 10.844 37.3673 12.764C37.3673 14.048 36.6233 14.876 35.6273 15.26L37.6553 18.5ZM33.8993 11.372H33.0473V14.216H33.9113C35.1353 14.216 35.7593 13.676 35.7593 12.812C35.7593 11.876 35.1473 11.372 33.8993 11.372ZM44.1725 10.064V11.408H40.5005V13.628H43.6325V14.936H40.5005V17.156H44.1725V18.5H38.9165V10.064H44.1725ZM50.899 10.064V11.408H47.227V13.628H50.359V14.936H47.227V17.156H50.899V18.5H45.643V10.064H50.899ZM56.7616 14.972L59.6416 10.064H61.1056V18.5H59.5696V12.812L57.2176 16.844H56.1856L53.8936 12.884V18.5H52.3696V10.064H53.8456V10.088L56.7616 14.972ZM62.8553 15.02V10.064H64.4393V15.008C64.4273 16.484 65.2073 17.252 66.5033 17.252C67.7393 17.252 68.4233 16.556 68.4593 14.972V10.064H70.0313V14.96C70.0313 17.588 68.2433 18.656 66.4433 18.656C64.5833 18.656 62.8433 17.576 62.8553 15.02ZM74.0073 18.656C73.0353 18.656 72.0273 18.38 71.3313 17.984L71.6073 16.592C72.2673 16.988 73.1433 17.288 73.9833 17.288C75.0393 17.288 75.6393 16.832 75.6393 16.184C75.6393 14.54 71.4153 15.5 71.4153 12.5C71.4153 10.952 72.6393 9.896 74.4513 9.896C75.3993 9.896 76.5033 10.184 76.9953 10.568L76.6353 11.888C76.0953 11.588 75.3273 11.276 74.4993 11.276C73.4553 11.276 72.9873 11.78 72.9873 12.344C72.9873 14.12 77.1993 13.244 77.1993 16.076C77.1993 17.672 75.7593 18.656 74.0073 18.656ZM80.1567 18.5H78.5727V10.064H80.1567V18.5ZM87.7354 16.34L88.6354 17.408C87.9034 18.212 86.8714 18.656 85.6234 18.656C83.1274 18.656 81.3394 16.88 81.3394 14.276C81.3394 11.744 83.1634 9.884 85.6714 9.884C86.9194 9.884 87.8914 10.268 88.6474 11.036L87.7114 12.212C87.1954 11.624 86.4394 11.336 85.6594 11.336C84.2434 11.336 82.9594 12.308 82.9594 14.264C82.9594 16.208 84.2434 17.216 85.6714 17.216C86.4394 17.216 87.2194 16.928 87.7354 16.34Z" fill="#333333"/>
  <path d="M105.5 11.0039C105.648 11.0039 105.77 11.0508 105.863 11.1445C105.957 11.2305 106.004 11.3477 106.004 11.4961C106.004 11.6523 105.957 11.7773 105.863 11.8711C105.77 11.957 105.648 12 105.5 12H104.996V18.5039C104.996 18.9258 104.852 19.2812 104.562 19.5703C104.281 19.8594 103.926 20.0039 103.496 20.0039H98.5039C98.0742 20.0039 97.7148 19.8594 97.4258 19.5703C97.1445 19.2812 97.0039 18.9258 97.0039 18.5039V12H96.5C96.3516 12 96.2305 11.957 96.1367 11.8711C96.043 11.7773 95.9961 11.6523 95.9961 11.4961C95.9961 11.3477 96.043 11.2305 96.1367 11.1445C96.2305 11.0508 96.3516 11.0039 96.5 11.0039H98.5039V10.5C98.5039 10.0781 98.6445 9.72266 98.9258 9.43359C99.2148 9.14453 99.5742 9 100.004 9H101.996C102.426 9 102.781 9.14453 103.062 9.43359C103.352 9.72266 103.496 10.0781 103.496 10.5V11.0039H105.5ZM99.5 10.5V11.0039H102.5V10.5C102.5 10.3516 102.453 10.2305 102.359 10.1367C102.273 10.043 102.152 9.99609 101.996 9.99609H100.004C99.8477 9.99609 99.7227 10.043 99.6289 10.1367C99.543 10.2305 99.5 10.3516 99.5 10.5ZM104 18.5039V12H98V18.5039C98 18.6523 98.043 18.7734 98.1289 18.8672C98.2227 18.9531 98.3477 18.9961 98.5039 18.9961H103.496C103.652 18.9961 103.773 18.9531 103.859 18.8672C103.953 18.7734 104 18.6523 104 18.5039ZM100.004 13.5C100.152 13.5 100.27 13.5469 100.355 13.6406C100.449 13.7266 100.496 13.8477 100.496 14.0039V17.0039C100.496 17.1523 100.449 17.2734 100.355 17.3672C100.27 17.4531 100.152 17.4961 100.004 17.4961C99.8477 17.4961 99.7227 17.4531 99.6289 17.3672C99.543 17.2734 99.5 17.1523 99.5 17.0039V14.0039C99.5 13.8477 99.543 13.7266 99.6289 13.6406C99.7227 13.5469 99.8477 13.5 100.004 13.5ZM101.996 13.5C102.152 13.5 102.273 13.5469 102.359 13.6406C102.453 13.7266 102.5 13.8477 102.5 14.0039V17.0039C102.5 17.1523 102.453 17.2734 102.359 17.3672C102.273 17.4531 102.152 17.4961 101.996 17.4961C101.848 17.4961 101.727 17.4531 101.633 17.3672C101.547 17.2734 101.504 17.1523 101.504 17.0039V14.0039C101.504 13.8477 101.547 13.7266 101.633 13.6406C101.727 13.5469 101.848 13.5 101.996 13.5Z" fill="#FF0000"/>
  </svg>
  